# xmcd CD database file
#
# Track frame offsets:
#	182
#	18780
#	39330
#	59400
#	75807
#	108927
#	124267
#	142747
#	158282
#	178155
#	196350
#	210490
#	228087
#	246745
#	262342
#	277555
#
# Disc length: 3990 seconds
#
# Revision: 0
# Processed by: cddbd v1.4PL0 Copyright (c) Steve Scherf et al.
# Submitted via: CDex 1.40Release
#
DISCID=c80f9410
DTITLE=Barry White - The collection (compil)
DYEAR=1900
DGENRE=Blues
TTITLE0=I'll do for you anything you want me to
TTITLE1=Sho'you right
TTITLE2=Walking in the rain (with the one I love)
TTITLE3=What am I gonna do with you?
TTITLE4=Never never gonna give you up (12" remix)
TTITLE5=Don't make me wait to long
TTITLE6=The right night
TTITLE7=You see the trouble with me
TTITLE8=Baby we better try and get it together
TTITLE9=Can't get enough of your love babe
TTITLE10=It may be winter outside (but in my heart it's spring)
TTITLE11=I'm gonna love you just a little more babe
TTITLE12=Love's theme
TTITLE13=Let the music play
TTITLE14=You're the first, the last, my everything
TTITLE15=Just the way you are
EXTD=ID3G: 0
EXTT0=
EXTT1=
EXTT2=
EXTT3=
EXTT4=
EXTT5=
EXTT6=
EXTT7=
EXTT8=
EXTT9=
EXTT10=
EXTT11=
EXTT12=
EXTT13=
EXTT14=
EXTT15=
PLAYORDER=
